# Blender v3.0.0 OBJ File: 'Ac unit.blend'
# www.blender.org
mtllib AcUnit.mtl
o AC_Cube
v 2.233412 0.613757 -1.689535
v 2.233412 0.636520 1.479576
v 2.233412 2.613706 -1.703900
v 2.233412 2.636469 1.465211
v -2.233412 0.613757 -1.689535
v -2.233412 0.636520 1.479576
v -2.233412 2.613706 -1.703900
v -2.233412 2.636469 1.465211
v 2.088962 0.635784 1.377092
v -2.088962 0.635784 1.377092
v 2.088962 0.614493 -1.587051
v -2.088962 0.614493 -1.587051
v 2.088962 0.825535 1.375729
v -2.088962 0.825535 1.375729
v 2.088962 0.804245 -1.588414
v -2.088962 0.804245 -1.588414
v -1.195086 2.636469 1.465211
v -1.195085 2.613706 -1.703900
v 2.100424 2.613706 -1.703900
v 2.100425 2.636469 1.465211
v 2.233412 2.614382 -1.609698
v -2.233412 2.614382 -1.609698
v -1.195085 2.614382 -1.609699
v 2.100424 2.614382 -1.609698
v -1.195085 2.682163 -1.610186
v -1.195086 2.704249 1.464724
v 2.100425 2.704249 1.464724
v 2.100424 2.682163 -1.610185
v -2.233412 2.685493 -1.610209
v -2.233412 2.684816 -1.704411
v 2.233412 2.685493 -1.610209
v 2.233412 2.707579 1.464700
v -1.195085 2.684816 -1.704411
v 2.100425 2.707579 1.464700
v 2.100424 2.684816 -1.704411
v 2.233412 2.684816 -1.704411
v 2.100424 2.685493 -1.610209
v -1.195085 2.685493 -1.610209
v -2.233412 1.999274 1.469788
v -2.233412 1.976511 -1.699323
v -2.233412 0.614049 -1.648923
v -2.233412 1.976803 -1.658711
v -2.233412 2.613997 -1.663287
v -2.281965 0.614049 -1.648923
v -2.281965 0.636520 1.479576
v -2.281965 1.999274 1.469788
v -2.281965 1.976803 -1.658711
v -2.233412 2.633741 1.085415
v -2.233412 2.228019 1.468145
v -2.233412 2.615662 1.085545
v -2.233412 2.615767 1.100168
v -2.233412 2.259799 1.102724
v -2.233412 2.259918 1.119286
v -2.233412 2.246463 1.119382
v -2.233412 2.246626 1.142049
v -2.233412 2.259799 1.155034
v -2.233412 2.261765 1.428724
v -2.233412 2.227738 1.428969
v -2.238183 2.228019 1.468145
v -2.238183 2.636469 1.465211
v -2.238183 2.633741 1.085415
v -2.238183 2.615662 1.085545
v -2.238183 2.615767 1.100168
v -2.238183 2.259799 1.102724
v -2.238183 2.259918 1.119286
v -2.238183 2.246463 1.119382
v -2.238183 2.246626 1.142049
v -2.238183 2.259799 1.155034
v -2.238183 2.261765 1.428724
v -2.238183 2.227738 1.428969
v -2.238183 2.407553 1.466855
v -2.238183 2.610958 1.465394
v -2.238183 2.405753 1.214821
v -2.238183 2.406906 1.201077
v -2.238183 2.415450 1.184841
v -2.238183 2.430852 1.172750
v -2.238183 2.576153 1.171706
v -2.238183 2.587217 1.178815
v -2.238183 2.604681 1.195463
v -2.238183 2.609277 1.230775
v -2.233464 2.407553 1.466855
v -2.233464 2.610958 1.465394
v -2.233464 2.405753 1.214821
v -2.233464 2.406906 1.201077
v -2.233464 2.415450 1.184841
v -2.233464 2.430852 1.172750
v -2.233464 2.576153 1.171706
v -2.233464 2.587217 1.178815
v -2.233464 2.604681 1.195463
v -2.233464 2.609277 1.230775
v -2.281965 1.977271 -1.593603
v -2.281965 0.614517 -1.583815
v -2.281965 1.987350 -0.190343
v -2.281965 0.624596 -0.180554
v -2.281965 1.988660 -0.007981
v -2.281965 0.625906 0.001808
v -2.281965 1.998784 1.401462
v -2.281965 0.636030 1.411250
v -2.297509 1.976511 -1.699323
v -2.297509 0.613757 -1.689535
v -2.297509 0.614049 -1.648923
v -2.297509 1.976803 -1.658711
vt 0.922733 0.109833
vt 0.922733 0.924673
vt 0.259280 0.924673
vt 0.259280 0.109833
vt 0.259280 0.109833
vt 0.259280 0.924673
vt 0.050244 0.924673
vt 0.050244 0.210478
vt 0.050244 0.109833
vt 0.922733 0.109833
vt 0.922733 0.924673
vt 0.949506 0.109833
vt 0.949506 0.924672
vt 0.922733 0.924673
vt 0.922733 0.109833
vt 0.949506 0.949636
vt 0.922733 0.949636
vt 0.050244 0.924673
vt 0.259280 0.924673
vt 0.259280 0.949636
vt 0.050244 0.949636
vt 0.050244 0.210478
vt 0.050244 0.109833
vt 0.771340 0.072666
vt 0.756484 0.072666
vt 0.756484 0.072666
vt 0.771340 0.072666
vt 0.932798 0.384032
vt 0.932798 0.716860
vt 0.658641 0.716860
vt 0.658641 0.706967
vt 0.658641 0.384033
vt 0.658641 0.706967
vt 0.658641 0.384033
vt 0.658641 0.716860
vt 0.934815 0.942166
vt 0.934815 0.930883
vt 0.934815 0.915996
vt 0.934815 0.915996
vt 0.934815 0.942166
vt 0.656612 0.061783
vt 0.656612 0.080764
vt 0.061626 0.080764
vt 0.061626 0.061783
vt 0.656612 0.930883
vt 0.656612 0.942166
vt 0.656612 0.061783
vt 0.656612 0.930883
vt 0.656612 0.912796
vt 0.656612 0.522969
vt 0.656612 0.472309
vt 0.061627 0.930884
vt 0.061627 0.930884
vt 0.934815 0.061783
vt 0.934815 0.167291
vt 0.926921 0.167290
vt 0.926921 0.163228
vt 0.771504 0.163229
vt 0.771504 0.158627
vt 0.765629 0.158628
vt 0.765629 0.152331
vt 0.771340 0.148697
vt 0.756484 0.061783
vt 0.834869 0.061783
vt 0.834873 0.131799
vt 0.835420 0.135614
vt 0.839201 0.140107
vt 0.845963 0.143435
vt 0.909402 0.143435
vt 0.914210 0.141438
vt 0.921783 0.136779
vt 0.923679 0.126960
vt 0.923677 0.061783
vt 0.756484 0.061783
vt 0.771340 0.148697
vt 0.765629 0.152331
vt 0.765629 0.158628
vt 0.771504 0.158627
vt 0.771504 0.163229
vt 0.926921 0.163228
vt 0.926921 0.167290
vt 0.934815 0.167291
vt 0.923677 0.061783
vt 0.923679 0.126960
vt 0.921783 0.136779
vt 0.914210 0.141438
vt 0.909402 0.143435
vt 0.845963 0.143435
vt 0.839201 0.140107
vt 0.835420 0.135614
vt 0.834873 0.131799
vt 0.834869 0.061783
vt 0.061627 0.912797
vt 0.061627 0.522969
vt 0.061627 0.472309
vt 0.061627 0.930884
vt 0.656612 0.930883
vt 0.656612 0.942166
vt 0.061627 0.942166
vt 0.248202 0.353399
vt 0.248202 0.606842
vt 0.124302 0.606842
vt 0.066369 0.606842
vt 0.066369 0.547928
vt 0.066369 0.360945
vt 0.066369 0.353399
vt 0.066369 0.360945
vt 0.066369 0.353399
vt 0.066369 0.547928
vt 0.066369 0.606842
vt 0.248202 0.606842
vt 0.124302 0.606842
vt 0.062990 0.537635
vt 0.057852 0.537635
vt 0.057852 0.537635
vt 0.062990 0.537635
vt 0.230413 0.778154
vt 0.057852 0.778154
vt 0.190301 0.537635
vt 0.230413 0.537635
vt 0.230413 0.586756
vt 0.230413 0.614266
vt 0.062990 0.537635
vt 0.190301 0.537635
vt 0.230413 0.614266
vt 0.230413 0.778154
vt 0.230413 0.537635
vt 0.230413 0.540703
vt 0.230413 0.565165
vt 0.230413 0.586756
vt 0.230413 0.540703
vt 0.230413 0.565165
vt 0.000090 0.964180
vt 0.000090 0.035546
vt 0.999971 0.035546
vt 0.999971 0.964180
vt 0.602872 0.525127
vt 0.413424 0.525127
vt 0.410965 0.525127
vt 0.417171 0.523165
vt 0.596666 0.523165
vt 0.669954 0.832509
vt 0.669954 0.364848
vt 0.704342 0.364848
vt 0.704342 0.832509
vt 0.602872 0.464476
vt 0.596666 0.466438
vt 0.410965 0.464476
vt 0.417171 0.466438
vt 0.877397 0.460427
vt 0.877397 0.798880
vt 0.850614 0.798880
vt 0.850614 0.460427
vt 0.718600 0.826527
vt 0.718600 0.391969
vt 0.752989 0.391969
vt 0.752989 0.826527
vt 0.920262 0.361051
vt 0.920262 0.828712
vt 0.885874 0.828712
vt 0.885874 0.361051
vt 0.602872 0.525127
vt 0.598735 0.525127
vt 0.513385 0.525127
vt 0.502342 0.525127
vt 0.417367 0.525127
vt 0.413424 0.525127
vt 0.413424 0.525127
vt 0.410965 0.525127
vn 0.0000 1.0000 -0.0072
vn 1.0000 0.0000 -0.0000
vn 0.0000 -0.0072 -1.0000
vn -1.0000 0.0000 -0.0000
vn 0.0000 0.0072 1.0000
vn 0.0000 -1.0000 0.0072
vn 0.0000 -0.7020 0.7122
vn 0.0000 -0.6900 0.7238
vn 0.0000 0.6175 0.7866
vn 0.0000 1.0000 -0.0071
vn 0.0000 -0.9916 0.1291
vn 0.0000 0.9965 0.0836
vn 0.0000 -0.5406 0.8413
vn 0.0000 0.8849 0.4657
usemtl Ac_front
s off
f 27/1/1 28/2/1 25/3/1 26/4/1
f 17/5/1 23/6/1 22/7/1 48/8/1 8/9/1
f 20/10/2 24/11/2 28/2/2 27/1/2
f 24/11/3 23/6/3 25/3/3 28/2/3
f 23/6/4 17/5/4 26/4/4 25/3/4
f 32/12/1 31/13/1 37/14/1 34/15/1
f 37/14/1 31/13/1 36/16/1 35/17/1
f 29/18/1 38/19/1 33/20/1 30/21/1
f 38/19/1 37/14/1 35/17/1 33/20/1
f 22/7/5 23/6/5 38/19/5 29/18/5
f 24/11/4 20/10/4 34/15/4 37/14/4
f 23/6/5 24/11/5 37/14/5 38/19/5
f 8/9/1 48/8/1 61/22/1 60/23/1
usemtl Ac_side
f 57/24/3 58/25/3 70/26/3 69/27/3
f 2/28/2 1/29/2 3/30/2 21/31/2 4/32/2
f 4/32/2 21/31/2 31/33/2 32/34/2
f 21/31/2 3/30/2 36/35/2 31/33/2
f 7/36/4 43/37/4 22/38/4 29/39/4 30/40/4
f 46/41/4 97/42/4 98/43/4 45/44/4
f 42/45/4 43/37/4 7/36/4 40/46/4
f 39/47/1 42/45/1 47/48/1 91/49/1 93/50/1 95/51/1 97/42/1 46/41/1
f 42/45/3 41/52/3 44/53/3 47/48/3
f 60/54/4 61/55/4 62/56/4 63/57/4 64/58/4 65/59/4 66/60/4 67/61/4 68/62/4 69/27/4 70/26/4 59/63/4 71/64/4 73/65/4 74/66/4 75/67/4 76/68/4 77/69/4 78/70/4 79/71/4 80/72/4 72/73/4
f 49/74/4 58/25/4 57/24/4 56/75/4 55/76/4 54/77/4 53/78/4 52/79/4 51/80/4 50/81/4 48/82/4 22/38/4 43/37/4 42/45/4 39/47/4
f 54/77/6 55/76/6 67/61/6 66/60/6
f 51/80/3 52/79/3 64/58/3 63/57/3
f 58/25/6 49/74/6 59/63/6 70/26/6
f 55/76/7 56/75/7 68/62/7 67/61/7
f 52/79/6 53/78/6 65/59/6 64/58/6
f 48/82/3 50/81/3 62/56/3 61/55/3
f 56/75/6 57/24/6 69/27/6 68/62/6
f 53/78/3 54/77/3 66/60/3 65/59/3
f 50/81/6 51/80/6 63/57/6 62/56/6
f 82/83/4 90/84/4 89/85/4 88/86/4 87/87/4 86/88/4 85/89/4 84/90/4 83/91/4 81/92/4
f 79/71/8 78/70/8 88/86/8 89/85/8
f 76/68/9 75/67/9 85/89/9 86/88/9
f 73/65/10 71/64/10 81/92/10 83/91/10
f 80/72/11 79/71/11 89/85/11 90/84/11
f 77/69/5 76/68/5 86/88/5 87/87/5
f 74/66/12 73/65/12 83/91/12 84/90/12
f 72/73/6 80/72/6 90/84/6 82/83/6
f 78/70/13 77/69/13 87/87/13 88/86/13
f 75/67/14 74/66/14 84/90/14 85/89/14
f 92/93/4 91/49/4 47/48/4 44/53/4
f 94/94/4 93/50/4 91/49/4 92/93/4
f 96/95/4 95/51/4 93/50/4 94/94/4
f 98/43/4 97/42/4 95/51/4 96/95/4
f 101/96/4 102/97/4 99/98/4 100/99/4
f 42/45/1 40/46/1 99/98/1 102/97/1
f 41/52/5 42/45/5 102/97/5 101/96/5
usemtl Ac_top
f 1/100/3 5/101/3 40/102/3 7/103/3 18/104/3 19/105/3 3/106/3
f 3/106/3 19/105/3 35/107/3 36/108/3
f 19/105/3 18/104/3 33/109/3 35/107/3
f 18/104/3 7/103/3 30/110/3 33/109/3
f 40/102/3 5/101/3 100/111/3 99/112/3
usemtl Ac_bottom
f 20/113/5 4/114/5 32/115/5 34/116/5
f 6/117/5 2/118/5 4/114/5 20/113/5 17/119/5 8/120/5 49/121/5 39/122/5
f 17/119/5 20/113/5 27/123/5 26/124/5
f 6/117/5 39/122/5 46/125/5 45/126/5
f 49/121/5 8/120/5 60/127/5 72/128/5 71/129/5 59/130/5
f 71/129/3 72/128/3 82/131/3 81/132/3
usemtl Ac_back
f 14/133/6 16/134/6 15/135/6 13/136/6
usemtl Ac_back_02
f 6/137/6 41/138/6 5/139/6 12/140/6 10/141/6
f 10/142/2 12/143/2 16/144/2 14/145/2
f 2/146/6 6/137/6 10/141/6 9/147/6
f 5/139/6 1/148/6 11/149/6 12/140/6
f 1/148/6 2/146/6 9/147/6 11/149/6
f 9/150/3 10/151/3 14/152/3 13/153/3
f 12/154/5 11/155/5 15/156/5 16/157/5
f 11/158/4 9/159/4 13/160/4 15/161/4
f 41/138/6 6/137/6 45/162/6 98/163/6 96/164/6 94/165/6 92/166/6 44/167/6
f 5/139/6 41/138/6 101/168/6 100/169/6
