<svg width="1692" height="1701" xmlns="http://www.w3.org/2000/svg" xmlns:xlink="http://www.w3.org/1999/xlink" xml:space="preserve" overflow="hidden"><defs><clipPath id="clip0"><rect x="320" y="238" width="1692" height="1701"/></clipPath><clipPath id="clip1"><rect x="552" y="798" width="1270" height="627"/></clipPath><clipPath id="clip2"><rect x="552" y="798" width="1270" height="627"/></clipPath><clipPath id="clip3"><rect x="454" y="93" width="1426" height="1425"/></clipPath><clipPath id="clip4"><rect x="596" y="237" width="1142" height="564"/></clipPath><clipPath id="clip5"><rect x="596" y="237" width="1142" height="564"/></clipPath><clipPath id="clip6"><rect x="463" y="104" width="1409" height="1408"/></clipPath></defs><g clip-path="url(#clip0)" transform="translate(-320 -238)"><text fill="#70AD47" font-family="Open Sans,Open Sans_MSFontService,sans-serif" font-weight="700" font-size="275" transform="matrix(1 0 0 1 485.455 1702)">WorldGen</text><g clip-path="url(#clip1)"><g clip-path="url(#clip2)"><g clip-path="url(#clip3)"><path d="M712.027 148.339C400.515 148.339 148.339 400.515 148.339 712.027 148.339 1023.54 400.515 1275.72 712.027 1275.72 1023.54 1275.72 1275.72 1023.54 1275.72 712.027 1275.72 400.515 1023.54 148.339 712.027 148.339ZM207.675 712.027C207.675 580.005 258.11 461.334 341.18 370.847 354.53 378.264 367.881 390.132 370.847 400.515L370.847 493.969C370.847 499.902 372.331 507.319 376.781 511.769L474.685 637.858 482.102 630.441C486.552 625.99 488.035 618.574 485.068 612.64L467.268 582.972C459.851 571.105 471.718 556.271 485.068 560.721 489.519 562.205 492.485 565.171 493.969 568.138L542.921 664.559C548.854 674.942 557.755 683.843 568.138 686.809L633.407 709.06C637.858 710.544 640.824 713.51 642.308 716.477L646.758 723.894C651.208 734.278 661.592 740.211 673.459 740.211L691.26 740.211C695.71 740.211 700.16 743.178 703.127 746.145L722.411 774.329C726.861 780.263 732.795 784.713 740.211 786.197L771.363 793.614C780.263 795.097 784.713 805.481 781.746 812.898 781.746 812.898 758.012 836.632 758.012 870.75 758.012 968.654 847.016 996.838 847.016 1019.09 847.016 1079.91 838.115 1164.46 833.665 1197.1 795.097 1206 755.045 1211.93 713.51 1211.93 434.633 1216.38 207.675 989.421 207.675 712.027ZM901.901 1179.29C934.536 1151.11 989.421 1103.64 1008.71 1082.87 1033.92 1054.69 1038.37 1008.71 1038.37 1008.71 1038.37 1008.71 1142.21 980.521 1142.21 904.868 1142.21 852.949 1038.37 830.698 1038.37 830.698 1020.57 772.846 933.052 741.695 860.366 741.695 844.049 741.695 786.197 771.363 786.197 771.363L756.529 756.529 756.529 712.027C756.529 703.127 750.595 697.193 741.695 697.193L712.027 697.193 712.027 652.691C712.027 643.791 706.094 637.858 697.193 637.858L682.359 637.858 666.042 648.241C651.208 658.625 630.441 652.691 623.024 636.374 623.024 636.374 608.19 615.607 608.19 606.706 608.19 542.921 682.359 547.371 682.359 547.371L714.994 547.371C722.411 547.371 728.344 551.821 729.828 559.238L738.728 596.323C740.211 602.256 746.145 608.19 753.562 608.19L759.496 608.19C766.913 608.19 772.846 603.74 774.329 596.323L784.713 541.437C786.197 536.987 787.68 532.537 790.647 528.087L832.182 476.168C841.082 465.784 852.949 459.851 866.3 459.851L904.868 459.851C913.768 459.851 919.702 453.917 919.702 445.017L919.702 430.183 915.251 425.733C906.351 416.833 912.285 400.515 925.635 400.515L934.536 400.515C943.436 400.515 949.369 406.449 949.369 415.349 949.369 424.249 955.303 430.183 964.203 430.183L979.037 430.183 987.938 391.615C990.904 378.264 984.971 366.397 974.587 358.98L848.499 283.327C847.016 281.844 844.049 281.844 841.082 281.844L815.864 281.844C799.547 281.844 786.197 295.195 786.197 311.512L786.197 326.346C786.197 335.246 780.263 341.18 771.363 341.18L756.529 341.18 741.695 326.346 697.193 326.346C688.293 326.346 682.359 320.412 682.359 311.512L682.359 274.427C682.359 269.977 683.843 265.527 688.293 262.56L783.23 222.508 798.064 247.726C801.03 250.693 803.997 252.176 808.447 252.176L845.532 252.176C854.432 252.176 860.366 246.243 860.366 237.342L860.366 229.925C1066.56 293.711 1216.38 485.068 1216.38 712.027 1216.38 922.668 1085.84 1103.64 901.901 1179.29Z" fill="#000000" fill-opacity="0.1" transform="matrix(1.00084 0 0 1 454.613 93.8795)"/><path d="M894.484 649.725 823.281 625.99C817.348 624.507 812.898 624.507 806.964 625.99L756.529 637.858C752.079 640.824 750.595 646.758 756.529 652.691L824.765 652.691C829.215 652.691 832.182 652.691 835.148 654.175L887.067 674.942C895.967 677.909 904.868 671.976 904.868 663.075 904.868 657.142 900.418 651.208 894.484 649.725Z" fill="#000000" fill-opacity="0.1" transform="matrix(1.00084 0 0 1 454.613 93.8795)"/></g></g></g><path d="M0 0 1095.69 0.316864" stroke="#000000" stroke-width="55" stroke-miterlimit="8" fill="none" fill-rule="evenodd" transform="matrix(1 0 0 -1 612.5 774.817)"/><path d="M1734 1275.5C1766.86 1275.5 1793.5 1302.36 1793.5 1335.5 1793.5 1368.64 1766.86 1395.5 1734 1395.5 1701.14 1395.5 1674.5 1368.64 1674.5 1335.5 1674.5 1302.36 1701.14 1275.5 1734 1275.5Z" stroke="#000000" stroke-width="55" stroke-miterlimit="8" fill="#FFFFFF" fill-rule="evenodd"/><path d="M1554.5 796.5 1555.38 1055.32 1692.5 1273.5" stroke="#000000" stroke-width="55" stroke-miterlimit="8" fill="none" fill-rule="evenodd"/><path d="M1163.5 792.5 1163.5 1051.32 1163.5 1269.5" stroke="#000000" stroke-width="55" stroke-miterlimit="8" fill="none" fill-rule="evenodd"/><path d="M1350.5 796.5 1351.36 1052.07 1484.5 1267.5" stroke="#000000" stroke-width="55" stroke-miterlimit="8" fill="none" fill-rule="evenodd"/><path d="M1519 1271.5C1552.41 1271.5 1579.5 1298.59 1579.5 1332 1579.5 1365.41 1552.41 1392.5 1519 1392.5 1485.59 1392.5 1458.5 1365.41 1458.5 1332 1458.5 1298.59 1485.59 1271.5 1519 1271.5Z" stroke="#000000" stroke-width="55" stroke-miterlimit="8" fill="none" fill-rule="evenodd"/><path d="M1167 1271.5C1199.86 1271.5 1226.5 1298.59 1226.5 1332 1226.5 1365.41 1199.86 1392.5 1167 1392.5 1134.14 1392.5 1107.5 1365.41 1107.5 1332 1107.5 1298.59 1134.14 1271.5 1167 1271.5Z" stroke="#000000" stroke-width="55" stroke-miterlimit="8" fill="#FFFFFF" fill-rule="evenodd"/><path d="M0 134 255.568 133.145 471 0" stroke="#000000" stroke-width="55" stroke-miterlimit="8" fill="none" fill-rule="evenodd" transform="matrix(6.12323e-17 1 1 -6.12323e-17 884.5 796.5)"/><path d="M0 59.5C-7.70246e-15 26.639 27.0868-7.57514e-15 60.5-1.51503e-14 93.9132-3.03006e-14 121 26.639 121 59.5 121 92.3609 93.9132 119 60.5 119 27.0868 119-3.85123e-14 92.3609 0 59.5Z" stroke="#000000" stroke-width="55" stroke-miterlimit="8" fill="#FFFFFF" fill-rule="evenodd" transform="matrix(6.12323e-17 1 1 -6.12323e-17 789.5 1271.5)"/><path d="M0 60C-7.63882e-15 26.8629 26.863-7.6388e-15 60.0002-1.52776e-14 93.1373-3.05552e-14 120 26.8629 120 60 120 93.137 93.1373 120 60.0002 120 26.863 120-3.81941e-14 93.137 0 60Z" stroke="#000000" stroke-width="55" stroke-miterlimit="8" fill="#FFFFFF" fill-rule="evenodd" transform="matrix(6.12323e-17 1 1 -6.12323e-17 584.5 1276.5)"/><path d="M0 139 258.823 138.113 477 0" stroke="#000000" stroke-width="55" stroke-miterlimit="8" fill="none" fill-rule="evenodd" transform="matrix(6.12323e-17 1 1 -6.12323e-17 685.5 796.5)"/><g clip-path="url(#clip4)"><g clip-path="url(#clip5)"><g clip-path="url(#clip6)"><path d="M703.346 146.53C395.632 146.53 146.53 395.632 146.53 703.346 146.53 1011.06 395.632 1260.16 703.346 1260.16 1011.06 1260.16 1260.16 1011.06 1260.16 703.346 1260.16 395.632 1011.06 146.53 703.346 146.53ZM205.142 703.346C205.142 572.934 254.963 455.709 337.02 366.326 350.208 373.652 363.395 385.375 366.326 395.632L366.326 487.946C366.326 493.807 367.791 501.134 372.187 505.53L468.897 630.08 476.224 622.754C480.62 618.358 482.085 611.032 479.154 605.17L461.571 575.864C454.244 564.142 465.966 549.489 479.154 553.885 483.55 555.35 486.481 558.281 487.946 561.211L536.301 656.456C542.162 666.713 550.954 675.505 561.211 678.435L625.685 700.415C630.08 701.88 633.011 704.811 634.476 707.742L638.872 715.068C643.268 725.325 653.525 731.186 665.248 731.186L682.831 731.186C687.227 731.186 691.623 734.117 694.554 737.048L713.603 764.888C717.999 770.75 723.86 775.146 731.186 776.611L761.958 783.937C770.75 785.403 775.146 795.66 772.215 802.986 772.215 802.986 748.77 826.431 748.77 860.133 748.77 956.843 836.688 984.684 836.688 1006.66 836.688 1066.74 827.896 1150.26 823.501 1182.5 785.403 1191.29 745.839 1197.15 704.811 1197.15 429.334 1201.55 205.142 977.357 205.142 703.346ZM890.904 1164.92C923.141 1137.08 977.357 1090.19 996.406 1069.67 1021.32 1041.83 1025.71 996.406 1025.71 996.406 1025.71 996.406 1128.28 968.566 1128.28 893.835 1128.28 842.549 1025.71 820.57 1025.71 820.57 1008.13 763.423 921.676 732.652 849.876 732.652 833.758 732.652 776.611 761.958 776.611 761.958L747.305 747.305 747.305 703.346C747.305 694.554 741.443 688.693 732.652 688.693L703.346 688.693 703.346 644.734C703.346 635.942 697.484 630.08 688.693 630.08L674.04 630.08 657.921 640.338C643.268 650.595 622.754 644.734 615.427 628.615 615.427 628.615 600.774 608.101 600.774 599.309 600.774 536.301 674.04 540.697 674.04 540.697L706.276 540.697C713.603 540.697 719.464 545.093 720.929 552.419L729.721 589.052C731.186 594.913 737.048 600.774 744.374 600.774L750.235 600.774C757.562 600.774 763.423 596.378 764.888 589.052L775.146 534.836C776.611 530.44 778.076 526.044 781.007 521.648L822.035 470.362C830.827 460.105 842.549 454.244 855.737 454.244L893.835 454.244C902.627 454.244 908.488 448.383 908.488 439.591L908.488 424.938 904.092 420.542C895.3 411.75 901.162 395.632 914.349 395.632L923.141 395.632C931.933 395.632 937.794 401.493 937.794 410.285 937.794 419.077 943.655 424.938 952.447 424.938L967.1 424.938 975.892 386.84C978.823 373.652 972.961 361.93 962.704 354.603L838.154 279.873C836.688 278.408 833.758 278.408 830.827 278.408L805.917 278.408C789.799 278.408 776.611 291.595 776.611 307.714L776.611 322.367C776.611 331.159 770.75 337.02 761.958 337.02L747.305 337.02 732.652 322.367 688.693 322.367C679.901 322.367 674.04 316.506 674.04 307.714L674.04 271.081C674.04 266.685 675.505 262.289 679.901 259.359L773.68 219.796 788.333 244.706C791.264 247.636 794.194 249.102 798.59 249.102L835.223 249.102C844.015 249.102 849.876 243.24 849.876 234.449L849.876 227.122C1053.55 290.13 1201.55 479.154 1201.55 703.346 1201.55 911.419 1072.6 1090.19 890.904 1164.92Z" stroke="#000000" stroke-width="14.653" transform="matrix(1.00118 0 0 1 463.024 104.477)"/><path d="M883.578 641.803 813.243 618.358C807.382 616.893 802.986 616.893 797.125 618.358L747.305 630.08C742.909 633.011 741.443 638.872 747.305 644.734L814.709 644.734C819.105 644.734 822.035 644.734 824.966 646.199L876.251 666.713C885.043 669.644 893.835 663.782 893.835 654.991 893.835 649.129 889.439 643.268 883.578 641.803Z" stroke="#000000" stroke-width="14.653" transform="matrix(1.00118 0 0 1 463.024 104.477)"/></g></g></g></g></svg>